<svg xmlns="http://www.w3.org/2000/svg" xmlns:xlink="http://www.w3.org/1999/xlink" width="205" height="205" viewBox="0 0 205 205">
    <defs>
        <path id="a" d="M7 26h74a3 3 0 0 1 3 3v39a3 3 0 0 1-3 3H26.546l-15.55 12 .414-12H7a3 3 0 0 1-3-3V29a3 3 0 0 1 3-3z"/>
    </defs>
    <g fill="none" fill-rule="evenodd">
        <circle cx="123" cy="106" r="76" fill="#EFEFEF"/>
        <g transform="translate(84 52)">
            <path fill="#FFF" d="M75.99 38.861c.007.046.01.092.01.139v44.5a5.5 5.5 0 0 1-11 0V77a1 1 0 0 0-2 0v6.5a5.5 5.5 0 0 1-11 0V77a1 1 0 0 0-2 0v6.5a5.5 5.5 0 0 1-11 0V77a1 1 0 0 0-2 0v6.5a5.5 5.5 0 0 1-11 0V77a1 1 0 0 0-2 0v6.5a5.5 5.5 0 0 1-11 0V77a1 1 0 0 0-2 0v6.5a5.5 5.5 0 0 1-11 0V38C0 17.013 17.013 0 38 0s38 17.013 38 38c0 .288-.003.575-.01.861z"/>
            <path stroke="#979797" d="M77.495 39.93l-.004-.08c.006-.283.009-.566.009-.85C77.5 18.29 60.71 1.5 40 1.5S2.5 18.29 2.5 39v45.5a5 5 0 0 0 10 0V78a1.5 1.5 0 0 1 3 0v6.5a5 5 0 0 0 10 0V78a1.5 1.5 0 0 1 3 0v6.5a5 5 0 0 0 10 0V78a1.5 1.5 0 0 1 3 0v6.5a5 5 0 0 0 10 0V78a1.5 1.5 0 0 1 3 0v6.5a5 5 0 0 0 10 0V78a1.5 1.5 0 0 1 3 0v6.5a5 5 0 0 0 10 0V40a.509.509 0 0 0-.005-.07z"/>
            <rect width="8" height="2" x="34" y="43" fill="#505050" rx="1"/>
            <circle cx="24.5" cy="38.5" r="1.5" fill="#505050"/>
            <circle cx="51.5" cy="38.5" r="1.5" fill="#505050"/>
        </g>
        <g transform="matrix(-1 0 0 1 88 0)">
            <use fill="#FFF" xlink:href="#a"/>
            <path stroke="#EFEFEF" stroke-width="2" d="M12.068 80.909L26.205 70H81a2 2 0 0 0 2-2V29a2 2 0 0 0-2-2H7a2 2 0 0 0-2 2v39a2 2 0 0 0 2 2h5.445l-.377 10.909z"/>
        </g>
        <text fill="#A5A5A5" font-family="PingFangSC-Medium, PingFang SC" font-size="16" font-weight="400">
            <tspan x="19" y="54">没有哦</tspan>
        </text>
        <ellipse cx="123.5" cy="169.5" fill="#505050" fill-opacity=".2" rx="26.5" ry="4.5"/>
    </g>
</svg>
