<svg xmlns="http://www.w3.org/2000/svg" xmlns:xlink="http://www.w3.org/1999/xlink" width="270" height="200" viewBox="0 0 270 200">
    <defs>
        <path id="a" d="M66.176 50.963C29.294 50.239 0 39.116 0 25.5 0 11.417 31.34 0 70 0s70 11.417 70 25.5c0 4.379-3.03 8.5-8.367 12.1C140.413 40.443 146 44.72 146 49.5c0 8.56-17.909 15.5-40 15.5-20.818 0-37.922-6.163-39.824-14.037zM41.5 75.237c-8.008 0-14.5-2.515-14.5-5.618S33.492 64 41.5 64 56 66.516 56 69.619c0 3.103-6.492 5.618-14.5 5.618z"/>
    </defs>
    <g fill="none" fill-rule="evenodd">
        <path fill="#FFF" d="M112 19H38a3 3 0 0 0-3 3v39a3 3 0 0 0 3 3h54.454l15.55 12-.414-12H112a3 3 0 0 0 3-3V22a3 3 0 0 0-3-3z"/>
        <path fill="#C31414" d="M74 55c-6.627 0-12-5.373-12-12s5.373-12 12-12 12 5.373 12 12-5.373 12-12 12zm-7.5-13.5v3h15v-3h-15z"/>
        <g transform="translate(56 116)">
            <mask id="b" fill="#fff">
                <use xlink:href="#a"/>
            </mask>
            <use fill="#505050" xlink:href="#a"/>
            <path fill="#FFD100" fill-opacity=".2" d="M81.387 28.384L110 110H49l28.613-81.616a2 2 0 0 1 3.774 0zM41 110h77v7H41v-7z" mask="url(#b)" transform="matrix(1 0 0 -1 0 144.045)"/>
        </g>
        <path fill="#FFD100" d="M137.387 54.384L166 136h-61l28.613-81.616a2 2 0 0 1 3.774 0zM97 136h77v7H97v-7z"/>
        <path stroke="#505050" stroke-opacity=".65" d="M167.65 134l-28.263-80.616a2 2 0 0 0-3.774 0L107.35 134H99v7h77v-7h-8.35z"/>
        <path fill="#505050" d="M125 98h1v4h-1zM145 98h1v4h-1z"/>
        <path stroke="#505050" d="M131.561 108.507l3.632-1.61a2 2 0 0 1 1.655.015l3.665 1.708"/>
    </g>
</svg>
